Coordinates
version=1
nRows=12
nColumns=24
inDegrees=yes

Units are S.I. units (second, meters, Newtons, ...)
Angles are in degrees.

endheader
time	pelvis_tilt	pelvis_list	pelvis_rotation	pelvis_tx	pelvis_ty	pelvis_tz	hip_flexion_r	hip_adduction_r	hip_rotation_r	knee_angle_r	ankle_angle_r	subtalar_angle_r	mtp_angle_r	hip_flexion_l	hip_adduction_l	hip_rotation_l	knee_angle_l	ankle_angle_l	subtalar_angle_l	mtp_angle_l	lumbar_extension	lumbar_bending	lumbar_rotation
      3.63000000	     -3.02619863	      6.33758023	     27.02944226	     -2.54052537	      0.62549473	      0.25108339	     32.27030998	    -17.50229433	     -4.92730337	     -7.95708076	     -0.62645250	    -14.05427243	      0.00000000	    -27.29602964	     -2.77916505	     30.36357596	     -5.27156933	     18.68054611	      0.38199983	      0.00000000	    -14.16319210	     -2.19857816	    -22.38834008
      3.64000000	     -3.39795273	      5.85968706	     27.46809595	     -2.52301873	      0.62298295	      0.25115778	     33.37983701	    -17.02465945	     -4.96185160	    -11.46653054	     -3.22169713	    -18.10673959	      0.00000000	    -27.32384408	     -3.63759237	     29.19268750	     -6.56277884	     17.13978170	      1.57916788	      0.00000000	    -13.20539933	     -1.62795713	    -23.20427539
      3.65000000	     -3.58813959	      5.22042833	     27.74694947	     -2.50562322	      0.62074438	      0.25145831	     34.30044848	    -16.22541904	     -4.75755056	    -14.76914372	     -6.72393463	    -22.19473408	      0.00000000	    -27.15888842	     -4.56222874	     27.26449368	     -8.30698159	     15.57029622	      3.36766662	      0.00000000	    -12.48943569	     -0.76885104	    -23.78111168
      3.66000000	     -3.65807834	      4.43305991	     27.83245903	     -2.48852580	      0.61879788	      0.25197802	     35.28885606	    -15.13809975	     -4.35609998	    -18.18523165	     -9.93038890	    -25.54223250	      0.00000000	    -26.72211740	     -5.49693015	     24.81866804	    -10.51780747	     13.75972916	      5.27469475	      0.00000000	    -11.98435097	      0.35489356	    -24.14981350
      3.67000000	     -3.52494182	      3.51565045	     27.73976080	     -2.47178558	      0.61727654	      0.25269005	     36.32527018	    -13.75919810	     -3.96986029	    -21.91498806	    -11.77410956	    -27.81902949	      0.00000000	    -26.10946752	     -6.49224566	     22.15374789	    -13.14757736	     11.41989761	      6.91003499	      0.00000000	    -11.79305001	      1.77242170	    -24.29659694
      3.68000000	     -3.25950801	      2.55861532	     27.52140879	     -2.45542245	      0.61620779	      0.25350863	     37.37929983	    -12.20674440	     -3.66825352	    -25.92643939	    -11.72942345	    -28.96327038	      0.00000000	    -25.27435706	     -7.44405532	     19.58877184	    -16.19909655	      8.29952102	      7.67164578	      0.00000000	    -11.85749551	      3.34389551	    -24.41914354
      3.69000000	     -2.95052811	      1.61039773	     27.23145286	     -2.43937468	      0.61561154	      0.25437559	     38.29736840	    -10.54462661	     -3.42047168	    -29.86102386	    -10.45196616	    -29.65611180	      0.00000000	    -24.13258010	     -8.28832544	     17.30417475	    -19.65502430	      4.25397612	      7.29189490	      0.00000000	    -12.04472577	      4.93896990	    -24.58435404
      3.70000000	     -2.63419746	      0.70225723	     27.02009924	     -2.42368889	      0.61561086	      0.25515303	     38.90622036	     -8.95120402	     -3.53207664	    -33.40500001	     -7.53136082	    -29.18884713	      0.00000000	    -22.55270643	     -9.06224748	     15.34268021	    -23.58365991	     -0.64834345	      6.25576280	      0.00000000	    -12.28295696	      6.49605898	    -24.84113428
      3.71000000	     -2.45915575	     -0.15034973	     26.81441684	     -2.40835752	      0.61615239	      0.25595935	     39.16034872	     -7.35125101	     -3.52271319	    -36.08784606	     -5.06044623	    -29.38062567	      0.00000000	    -20.45814708	     -9.63318449	     13.84408212	    -27.85645314	     -6.43577113	      3.89156766	      0.00000000	    -12.39708507	      7.85629302	    -25.12155103
      3.72000000	     -2.37989793	     -0.98702038	     26.61376055	     -2.39344480	      0.61724513	      0.25682425	     39.03958933	     -5.73834978	     -3.52115051	    -37.87853579	     -2.79313959	    -29.68078107	      0.00000000	    -17.85826362	    -10.08965356	     12.64202692	    -32.47429083	    -12.77666911	      0.67946134	      0.00000000	    -12.41359032	      9.06627974	    -25.29757812
      3.73000000	     -2.40380379	     -1.79257669	     26.35513572	     -2.37896355	      0.61880032	      0.25779870	     38.61304213	     -4.10679636	     -3.43684610	    -38.83665826	     -0.95545325	    -30.17885751	      0.00000000	    -14.85371256	    -10.39375818	     11.70510953	    -37.28504150	    -19.40909619	     -3.33427839	      0.00000000	    -12.34379248	     10.08345352	    -25.22799929
      3.74000000	     -2.49243472	     -2.56056132	     25.97229772	     -2.36487833	      0.62071045	      0.25893703	     37.94306549	     -2.42557987	     -3.19814183	    -39.12350054	      0.42076121	    -30.89391372	      0.00000000	    -11.60254408	    -10.55100410	     10.93582351	    -42.13475828	    -25.94256321	     -7.91352610	      0.00000000	    -12.23694173	     10.91479281	    -24.85512905
